TITLE ""
FILE "DISC1Track31.mp3" MP3
  TRACK 01 AUDIO
    TITLE "DISC1Track31_01"
    INDEX 01 00:00:00
  TRACK 02 AUDIO
    TITLE "DISC1Track31_02"
    INDEX 01 00:01:43
  TRACK 03 AUDIO
    TITLE "DISC1Track31_03"
    INDEX 01 00:01:53
  TRACK 04 AUDIO
    TITLE "DISC1Track31_04"
    INDEX 01 00:04:39
  TRACK 05 AUDIO
    TITLE "DISC1Track31_05"
    INDEX 01 00:07:59
  TRACK 06 AUDIO
    TITLE "DISC1Track31_06"
    INDEX 01 00:10:60
  TRACK 07 AUDIO
    TITLE "DISC1Track31_07"
    INDEX 01 00:10:69
  TRACK 08 AUDIO
    TITLE "DISC1Track31_08"
    INDEX 01 00:14:32
  TRACK 09 AUDIO
    TITLE "DISC1Track31_09"
    INDEX 01 00:17:46
  TRACK 10 AUDIO
    TITLE "DISC1Track31_10"
    INDEX 01 00:20:25
  TRACK 11 AUDIO
    TITLE "DISC1Track31_11"
    INDEX 01 00:20:40
  TRACK 12 AUDIO
    TITLE "DISC1Track31_12"
    INDEX 01 00:23:25
  TRACK 13 AUDIO
    TITLE "DISC1Track31_13"
    INDEX 01 00:26:31
  TRACK 14 AUDIO
    TITLE "DISC1Track31_14"
    INDEX 01 00:29:06
  TRACK 15 AUDIO
    TITLE "DISC1Track31_15"
    INDEX 01 00:29:22
  TRACK 16 AUDIO
    TITLE "DISC1Track31_16"
    INDEX 01 00:32:30
  TRACK 17 AUDIO
    TITLE "DISC1Track31_17"
    INDEX 01 00:35:18
  TRACK 18 AUDIO
    TITLE "DISC1Track31_18"
    INDEX 01 00:37:53
  TRACK 19 AUDIO
    TITLE "DISC1Track31_19"
    INDEX 01 00:37:66
  TRACK 20 AUDIO
    TITLE "DISC1Track31_20"
    INDEX 01 00:39:46
  TRACK 21 AUDIO
    TITLE "DISC1Track31_21"
    INDEX 01 00:41:56
  TRACK 22 AUDIO
    TITLE "DISC1Track31_22"
    INDEX 01 00:43:41
  TRACK 23 AUDIO
    TITLE "DISC1Track31_23"
    INDEX 01 00:43:55
  TRACK 24 AUDIO
    TITLE "DISC1Track31_24"
    INDEX 01 00:46:40
  TRACK 25 AUDIO
    TITLE "DISC1Track31_25"
    INDEX 01 00:48:62
  TRACK 26 AUDIO
    TITLE "DISC1Track31_26"
    INDEX 01 00:50:65
  TRACK 27 AUDIO
    TITLE "DISC1Track31_27"
    INDEX 01 00:51:06
  TRACK 28 AUDIO
    TITLE "DISC1Track31_28"
    INDEX 01 00:54:08
  TRACK 29 AUDIO
    TITLE "DISC1Track31_29"
    INDEX 01 00:57:24
  TRACK 30 AUDIO
    TITLE "DISC1Track31_30"
    INDEX 01 01:00:16
  TRACK 31 AUDIO
    TITLE "DISC1Track31_31"
    INDEX 01 01:00:32
  TRACK 32 AUDIO
    TITLE "DISC1Track31_32"
    INDEX 01 01:04:08
  TRACK 33 AUDIO
    TITLE "DISC1Track31_33"
    INDEX 01 01:07:03
  TRACK 34 AUDIO
    TITLE "DISC1Track31_34"
    INDEX 01 01:09:51
  TRACK 35 AUDIO
    TITLE "DISC1Track31_35"
    INDEX 01 01:09:66
  TRACK 36 AUDIO
    TITLE "DISC1Track31_36"
    INDEX 01 01:14:09
  TRACK 37 AUDIO
    TITLE "DISC1Track31_37"
    INDEX 01 01:17:48
  TRACK 38 AUDIO
    TITLE "DISC1Track31_38"
    INDEX 01 01:20:58
  TRACK 39 AUDIO
    TITLE "DISC1Track31_39"
    INDEX 01 01:20:66
  TRACK 40 AUDIO
    TITLE "DISC1Track31_40"
    INDEX 01 01:23:47
  TRACK 41 AUDIO
    TITLE "DISC1Track31_41"
    INDEX 01 01:26:22
  TRACK 42 AUDIO
    TITLE "DISC1Track31_42"
    INDEX 01 01:28:46
  TRACK 43 AUDIO
    TITLE "DISC1Track31_43"
    INDEX 01 01:28:62
  TRACK 44 AUDIO
    TITLE "DISC1Track31_44"
    INDEX 01 01:30:27
  TRACK 45 AUDIO
    TITLE "DISC1Track31_45"
    INDEX 01 01:32:30
  TRACK 46 AUDIO
    TITLE "DISC1Track31_46"
    INDEX 01 01:34:04
  TRACK 47 AUDIO
    TITLE "DISC1Track31_47"
    INDEX 01 01:34:19
  TRACK 48 AUDIO
    TITLE "DISC1Track31_48"
    INDEX 01 01:38:11
  TRACK 49 AUDIO
    TITLE "DISC1Track31_49"
    INDEX 01 01:41:51
  TRACK 50 AUDIO
    TITLE "DISC1Track31_50"
    INDEX 01 01:44:57
